<svg version="1.1" xmlns="http://www.w3.org/2000/svg" x="0px" y="0px" width="192.4px"
	 height="59.1px" viewBox="0 0 192.4 59.1" enable-background="new 0 0 192.4 59.1" xml:space="preserve">
		<path fill="#FFFFFF" d="M6.9,14.3c0,0-1.2,0.5-1.2,0.7S5,17.7,5,17.7s-3.1,5.6-4.3,10.1S0.3,39.6,0.3,39.6s0.9,5.7,3.1,8.5l17,3.1
			c0,0-1.2-4.8-0.8-9.8c0.4-5,4.5-12.4,11.4-13.8s13-1,17.8,3.9s5.8,10.1,4.9,20.6h86.5c0,0-1.2-6.3,0.4-13.5
			c1.6-7.1,9.2-11.5,15.3-11.5s11.8,1.6,15.2,6.1c3.4,4.5,4.3,10.6,2.6,19.2l18.6-1.4v-4c0,0-1.7-1.5-1.8-2.6
			c-0.1-1.2,0.7-9.9,0.7-9.9l-2.5-5.1c0,0-3.7-3.9-11.4-6.2s-13.5-3.8-22.2-5.1s-16.7-2-16.7-2l-5.7,0.5c0,0-18.4-10.8-27.8-14.3
			c0,0-7-2.2-13-2.4C74.4-0.5,57.6,3,57.6,3s-13,3.1-17.7,4.6s-11.9,4.6-11.9,4.6l-1.5-0.1c0,0-4.2,1.3-6.6,1.2l-4.1-3L4.4,9.9
			c0,0-0.3,1,1.3,1.4c0,0,1.8,0,2,1.2C7.8,13.7,6.9,14.3,6.9,14.3z"/>
		<path fill="#666E9D" d="M51.1,14.8c-0.9,0-1.3-1.1-0.7-1.8c1.7-1.8,4.2-4.6,4.8-4.9c1-0.5,10.8-2.8,14.5-3.1s25.8-1.8,25.8-1.8
			s16.2,6.9,25.9,14.4L51.1,14.8z"/>
		<path fill="#666E9D" d="M100.6,2.7l25.3,14.6l6.1-0.5c0,0-16.8-10.4-27.5-14.3L100.6,2.7z"/>
		<path fill="#FFFFFF" d="M108.4,11.7c0,0-1.9,1.2-1.9,1.5s0,3.8,0,3.8s0.2,0.5,1,0.6c0.8,0.1,2.8,0.2,2.8,0.2s-1,1.6-0.9,1.9
			s0.3,1.1,1.4,1.2c1,0.1,2.6,0,3-0.1c0.4-0.1,1-0.9,1-1s-1-2.3-1-2.3l0.5-0.3l0-2.9C114.3,14.2,112.1,11.7,108.4,11.7z"/>
		<path fill="#666E9D" d="M4.1,24.7c0,0-0.6-0.3-0.3-1.6s2.6-6.2,4.2-6.2s-1.5,5.5-1.5,5.5S5.1,25,4.1,24.7z"/>
		<polygon fill="#FFFFFF" points="69.1,5 71.2,15.6 72.7,15.7 69.7,5 		"/>
		<path fill="#666E9D" d="M125.8,24.2l8.2,0.8c1,0.1,1.5,1.2,1,2.1c-2.7,4.6-9.7,16.3-12,17.1c-2.8,0.9-46.6,0-46.6,0
			s44.9-1.3,45.9-1.7c1-0.4,10.9-15.7,10.9-15.7L125.8,24.2z"/>
		<path fill="#666E9D" d="M163.2,22.6c0,0,13.7,3.4,19,8.4c0,0,3.9,1.2,6,1.4c0,0-0.6-2.2-3.8-4.3c-3.2-2.1-15.6-5.2-15.6-5.2
			L163.2,22.6z"/>
		<circle fill="#FFFFFF" cx="37" cy="44.2" r="15"/>
		<circle fill="#666E9D" cx="37" cy="44.2" r="11.5"/>
		<circle fill="#FFFFFF" cx="156.9" cy="44.2" r="15"/>
		<circle fill="#666E9D" cx="156.9" cy="44.2" r="11.5"/>
</svg>
